<svg height="486pt" viewBox="0 -75 486.24 486" width="486pt" xmlns="http://www.w3.org/2000/svg"><g fill="#4671c6"><path d="m82.808594 173.195312c-43.453125 0-78.808594 35.78125-78.808594 79.761719s35.351562 79.761719 78.808594 79.761719c43.457031 0 78.808594-35.78125 78.808594-79.761719s-35.355469-79.761719-78.808594-79.761719zm61.308594 79.761719c0 34.265625-27.503907 62.144531-61.3125 62.144531-33.808594 0-61.3125-27.878906-61.3125-62.144531s27.503906-62.140625 61.3125-62.140625c33.808593 0 61.3125 27.875 61.3125 62.140625zm0 0"/><path d="m403.433594 173.195312c-43.457032 0-78.808594 35.78125-78.808594 79.761719s35.351562 79.761719 78.808594 79.761719c43.453125 0 78.804687-35.78125 78.804687-79.761719s-35.351562-79.761719-78.804687-79.761719zm61.3125 79.761719c0 34.265625-27.507813 62.144531-61.3125 62.144531-33.808594 0-61.3125-27.878906-61.3125-62.144531s27.503906-62.140625 61.3125-62.140625c33.804687 0 61.3125 27.875 61.3125 62.140625zm0 0"/><path d="m82.808594 173.195312c-43.453125 0-78.808594 35.78125-78.808594 79.761719s35.351562 79.761719 78.808594 79.761719c43.457031 0 78.808594-35.78125 78.808594-79.761719s-35.355469-79.761719-78.808594-79.761719zm61.308594 79.761719c0 34.265625-27.503907 62.144531-61.3125 62.144531-33.808594 0-61.3125-27.878906-61.3125-62.144531s27.503906-62.140625 61.3125-62.140625c33.808593 0 61.3125 27.875 61.3125 62.140625zm0 0"/><path d="m403.433594 173.195312c-43.457032 0-78.808594 35.78125-78.808594 79.761719s35.351562 79.761719 78.808594 79.761719c43.453125 0 78.804687-35.78125 78.804687-79.761719s-35.351562-79.761719-78.804687-79.761719zm61.3125 79.761719c0 34.265625-27.507813 62.144531-61.3125 62.144531-33.808594 0-61.3125-27.878906-61.3125-62.144531s27.503906-62.140625 61.3125-62.140625c33.804687 0 61.3125 27.875 61.3125 62.140625zm0 0"/></g><path d="m82.808594 336.71875c-45.660156 0-82.808594-37.574219-82.808594-83.761719s37.148438-83.761719 82.808594-83.761719 82.808594 37.574219 82.808594 83.761719-37.148438 83.761719-82.808594 83.761719zm0-159.523438c-41.25 0-74.808594 33.988282-74.808594 75.761719 0 41.777344 33.558594 75.761719 74.808594 75.761719s74.808594-33.988281 74.808594-75.761719c0-41.777343-33.5625-75.761719-74.808594-75.761719zm0 141.90625c-36.015625 0-65.3125-29.671874-65.3125-66.144531 0-36.46875 29.296875-66.140625 65.3125-66.140625 36.011718 0 65.3125 29.671875 65.3125 66.140625 0 36.472657-29.300782 66.144531-65.3125 66.144531zm0-124.289062c-31.601563 0-57.3125 26.082031-57.3125 58.144531 0 32.058594 25.710937 58.144531 57.3125 58.144531 31.601562 0 57.3125-26.085937 57.3125-58.144531 0-32.0625-25.710938-58.144531-57.3125-58.144531zm0 0" fill="#3762cc"/><path d="m403.433594 336.71875c-45.660156 0-82.808594-37.574219-82.808594-83.761719s37.148438-83.761719 82.808594-83.761719 82.804687 37.574219 82.804687 83.761719-37.144531 83.761719-82.804687 83.761719zm0-159.523438c-41.25 0-74.808594 33.988282-74.808594 75.761719 0 41.777344 33.558594 75.765625 74.808594 75.765625s74.804687-33.988281 74.804687-75.765625c0-41.773437-33.554687-75.761719-74.804687-75.761719zm0 141.90625c-36.011719 0-65.3125-29.671874-65.3125-66.144531 0-36.46875 29.296875-66.140625 65.3125-66.140625 36.011718 0 65.308594 29.671875 65.308594 66.140625 0 36.472657-29.296876 66.144531-65.308594 66.144531zm0-124.289062c-31.605469 0-57.3125 26.082031-57.3125 58.144531 0 32.058594 25.707031 58.144531 57.3125 58.144531 31.601562 0 57.308594-26.085937 57.308594-58.144531 0-32.0625-25.707032-58.144531-57.308594-58.144531zm0 0" fill="#3762cc"/><path d="m82.808594 336.71875c-45.660156 0-82.808594-37.574219-82.808594-83.761719s37.148438-83.761719 82.808594-83.761719 82.808594 37.574219 82.808594 83.761719-37.148438 83.761719-82.808594 83.761719zm0-159.523438c-41.25 0-74.808594 33.988282-74.808594 75.761719 0 41.777344 33.558594 75.761719 74.808594 75.761719s74.808594-33.988281 74.808594-75.761719c0-41.777343-33.5625-75.761719-74.808594-75.761719zm0 141.90625c-36.015625 0-65.3125-29.671874-65.3125-66.144531 0-36.46875 29.296875-66.140625 65.3125-66.140625 36.011718 0 65.3125 29.671875 65.3125 66.140625 0 36.472657-29.300782 66.144531-65.3125 66.144531zm0-124.289062c-31.601563 0-57.3125 26.082031-57.3125 58.144531 0 32.058594 25.710937 58.144531 57.3125 58.144531 31.601562 0 57.3125-26.085937 57.3125-58.144531 0-32.0625-25.710938-58.144531-57.3125-58.144531zm0 0" fill="#3762cc"/><path d="m403.433594 336.71875c-45.660156 0-82.808594-37.574219-82.808594-83.761719s37.148438-83.761719 82.808594-83.761719 82.804687 37.574219 82.804687 83.761719-37.144531 83.761719-82.804687 83.761719zm0-159.523438c-41.25 0-74.808594 33.988282-74.808594 75.761719 0 41.777344 33.558594 75.765625 74.808594 75.765625s74.804687-33.988281 74.804687-75.765625c0-41.773437-33.554687-75.761719-74.804687-75.761719zm0 141.90625c-36.011719 0-65.3125-29.671874-65.3125-66.144531 0-36.46875 29.296875-66.140625 65.3125-66.140625 36.011718 0 65.308594 29.671875 65.308594 66.140625 0 36.472657-29.296876 66.144531-65.308594 66.144531zm0-124.289062c-31.605469 0-57.3125 26.082031-57.3125 58.144531 0 32.058594 25.707031 58.144531 57.3125 58.144531 31.601562 0 57.308594-26.085937 57.308594-58.144531 0-32.0625-25.707032-58.144531-57.308594-58.144531zm0 0" fill="#3762cc"/><path d="m314.578125 72c-4.75 0-9.417969-2.25-12.332031-6.449219-4.722656-6.800781-3.039063-16.152343 3.765625-20.875 5.667969-3.9375 9.460937-7.042969 11.988281-9.378906-7.78125-1.222656-19.976562-1.605469-30.695312-.710937-8.261719.703124-15.503907-5.445313-16.195313-13.699219-.6875-8.257813 5.445313-15.507813 13.699219-16.195313.515625-.042968 12.789062-1.054687 25.875-.285156 14.699218.863281 34.898437 3.839844 40.605468 19.714844 7.375 20.519531-17.53125 37.8125-28.167968 45.199218-2.605469 1.808594-5.589844 2.679688-8.542969 2.679688zm0 0" fill="#a4c9ff"/><path d="m314.578125 72c-4.75 0-9.417969-2.25-12.332031-6.449219-4.722656-6.800781-3.039063-16.152343 3.765625-20.875 5.667969-3.9375 9.460937-7.042969 11.988281-9.378906-7.78125-1.222656-19.976562-1.605469-30.695312-.710937-8.261719.703124-15.503907-5.445313-16.195313-13.699219-.6875-8.257813 5.445313-15.507813 13.699219-16.195313.515625-.042968 12.789062-1.054687 25.875-.285156 14.699218.863281 34.898437 3.839844 40.605468 19.714844 7.375 20.519531-17.53125 37.8125-28.167968 45.199218-2.605469 1.808594-5.589844 2.679688-8.542969 2.679688zm0 0" fill="#a4c9ff"/><path d="m161.300781 82.054688-59.285156-12.46875v.179687c-.976563-.117187-1.964844-.179687-2.964844-.179687-15.144531 0-27.421875 13.601562-27.421875 30.378906s12.273438 30.382812 27.421875 30.382812c1 0 1.988281-.066406 2.964844-.179687v.179687l59.285156-12.472656c8.929688 0 16.167969-8.015625 16.167969-17.910156 0-9.890625-7.238281-17.910156-16.167969-17.910156zm0 0" fill="#a4c9ff"/><path d="m161.300781 82.054688-59.285156-12.46875v.179687c-.976563-.117187-1.964844-.179687-2.964844-.179687-15.144531 0-27.421875 13.601562-27.421875 30.378906s12.273438 30.382812 27.421875 30.382812c1 0 1.988281-.066406 2.964844-.179687v.179687l59.285156-12.472656c8.929688 0 16.167969-8.015625 16.167969-17.910156 0-9.890625-7.238281-17.910156-16.167969-17.910156zm0 0" fill="#a4c9ff"/><path d="m102.015625 134.347656c-.273437 0-.542969-.03125-.808594-.082031-18.292969 1.359375-33.578125-14.558594-33.578125-34.296875 0-19.785156 15.34375-35.738281 33.707032-34.289062.492187-.105469 1.003906-.117188 1.5-.007813l58.90625 12.390625c10.914062.253906 19.726562 9.980469 19.726562 21.902344s-8.808594 21.652344-19.726562 21.90625l-58.90625 12.386718c-.273438.058594-.546876.089844-.820313.089844zm-2.96875-60.761718c-12.914063 0-23.417969 11.835937-23.417969 26.378906 0 15.464844 11.878906 27.890625 25.90625 26.230468.28125-.039062.5625-.039062.839844-.015624l58.101562-12.21875c.269532-.054688.546876-.085938.824219-.085938 6.710938 0 12.167969-6.238281 12.167969-13.910156 0-7.667969-5.457031-13.910156-12.167969-13.910156-.273437 0-.550781-.027344-.824219-.085938l-58.144531-12.230469c-.261719.03125-.53125.035157-.796875-.003906-.832031-.097656-1.667968-.148437-2.488281-.148437zm0 0" fill="#3762cc"/><path d="m102.015625 134.347656c-.273437 0-.542969-.03125-.808594-.082031-18.292969 1.359375-33.578125-14.558594-33.578125-34.296875 0-19.785156 15.34375-35.738281 33.707032-34.289062.492187-.105469 1.003906-.117188 1.5-.007813l58.90625 12.390625c10.914062.253906 19.726562 9.980469 19.726562 21.902344s-8.808594 21.652344-19.726562 21.90625l-58.90625 12.386718c-.273438.058594-.546876.089844-.820313.089844zm-2.96875-60.761718c-12.914063 0-23.417969 11.835937-23.417969 26.378906 0 15.464844 11.878906 27.890625 25.90625 26.230468.28125-.039062.5625-.039062.839844-.015624l58.101562-12.21875c.269532-.054688.546876-.085938.824219-.085938 6.710938 0 12.167969-6.238281 12.167969-13.910156 0-7.667969-5.457031-13.910156-12.167969-13.910156-.273437 0-.550781-.027344-.824219-.085938l-58.144531-12.230469c-.261719.03125-.53125.035157-.796875-.003906-.832031-.097656-1.667968-.148437-2.488281-.148437zm0 0" fill="#3762cc"/><path d="m329.609375 148.167969-.773437.179687-.675782-3.027344h-178.929687l14.25 23.75h150.222656l20.773437-12.785156zm0 0" fill="#f9a7a7"/><path d="m313.703125 173.070312h-150.21875c-1.40625 0-2.707031-.734374-3.429687-1.941406l-14.253907-23.75c-.742187-1.234375-.761719-2.773437-.050781-4.027344.710938-1.253906 2.039062-2.03125 3.480469-2.03125h178.929687c1.875 0 3.496094 1.296876 3.902344 3.125l.15625.6875c.320312.273438.597656.597657.820312.972657l4.871094 8.117187c1.128906 1.878906.535156 4.316406-1.332031 5.464844l-20.777344 12.789062c-.632812.390626-1.355469.59375-2.097656.59375zm-147.957031-8h146.824218l16.445313-10.121093-1.757813-2.925781c-.191406-.082032-.375-.179688-.550781-.292969-.871093-.546875-1.5-1.414063-1.75-2.410157h-168.664062zm0 0" fill="#3762cc"/><path d="m102.015625 134.347656c-.273437 0-.542969-.03125-.808594-.082031-18.292969 1.359375-33.578125-14.558594-33.578125-34.296875 0-19.785156 15.34375-35.738281 33.707032-34.289062.492187-.105469 1.003906-.117188 1.5-.007813l58.90625 12.390625c10.914062.253906 19.726562 9.980469 19.726562 21.902344s-8.808594 21.652344-19.726562 21.90625l-58.90625 12.386718c-.273438.058594-.546876.089844-.820313.089844zm-2.96875-60.761718c-12.914063 0-23.417969 11.835937-23.417969 26.378906 0 15.464844 11.878906 27.890625 25.90625 26.230468.28125-.039062.5625-.039062.839844-.015624l58.101562-12.21875c.269532-.054688.546876-.085938.824219-.085938 6.710938 0 12.167969-6.238281 12.167969-13.910156 0-7.667969-5.457031-13.910156-12.167969-13.910156-.273437 0-.550781-.027344-.824219-.085938l-58.144531-12.230469c-.261719.03125-.53125.035157-.796875-.003906-.832031-.097656-1.667968-.148437-2.488281-.148437zm0 0" fill="#3762cc"/><path d="m409.636719 243.9375-63.199219-105.316406-16.570312-74.128906c-2.523438 1.894531-4.859376 3.523437-6.746094 4.828124-2.605469 1.8125-5.589844 2.683594-8.542969 2.683594-.96875 0-1.929687-.121094-2.878906-.304687l17.136719 76.652343.769531-.179687 4.871093 8.117187-130.480468 80.304688-68.039063-113.382812-20.03125 4.210937 17.523438 29.207031-51.960938 86.589844h-.6875v1.144531l-.734375 1.226563.734375.449218v6.511719c0 5.597657 4.507813 10.152344 10.054688 10.152344h106.222656l.425781.707031 1.144532-.707031h1.496093v-.921875l144.332031-88.828125 48.660157 81.089844c1.761719 2.9375 4.847656 4.691406 8.253906 4.691406 1.765625 0 3.5-.492187 5.011719-1.421875 4.535156-2.792969 5.984375-8.789062 3.234375-13.375zm-305.582031-.722656 40.679687-67.792969 40.679687 67.792969zm0 0" fill="#e0ebfc"/><path d="m197.507812 267.40625c-.320312 0-.636718-.039062-.949218-.113281-.476563-.117188-.921875-.320313-1.320313-.59375h-104.378906c-7.75 0-14.054687-6.347657-14.054687-14.152344v-4.648437c-.886719-1.257813-1.003907-2.96875-.164063-4.371094l.164063-.3125c0-1.542969.875-2.882813 2.15625-3.546875l49.828124-83.042969-16.292968-27.148438c-.664063-1.109374-.753906-2.46875-.234375-3.65625s1.578125-2.046874 2.84375-2.3125l20.03125-4.214843c1.664062-.347657 3.375.394531 4.25 1.855469l65.960937 109.917968 123.664063-76.113281-1.757813-2.929687c-.191406-.082032-.375-.175782-.550781-.289063-.902344-.566406-1.542969-1.472656-1.773437-2.515625l-17.132813-76.648438c-.292969-1.316406.09375-2.695312 1.039063-3.664062.941406-.96875 2.300781-1.398438 3.632812-1.132812.785156.152343 1.472656.226562 2.109375.226562 2.242187 0 4.40625-.679688 6.261719-1.964844 1.722656-1.195312 4.082031-2.832031 6.625-4.742187 1.085937-.816407 2.511718-1.023438 3.785156-.554688s2.222656 1.554688 2.519531 2.878907l16.429688 73.5 62.867187 104.761718c3.875 6.457032 1.824219 14.90625-4.5625 18.835938-2.144531 1.320312-4.601562 2.019531-7.109375 2.019531-4.828125 0-9.195312-2.480469-11.6875-6.632813l-46.578125-77.625-139.265625 85.714844c-.589843 1.472656-2.035156 2.511719-3.714843 2.511719h-.363282l-.183594.109375c-.632812.390625-1.359374.59375-2.09375.59375zm-112.734374-21.894531c.023437.171875.035156.347656.035156.523437v6.511719c0 3.394531 2.714844 6.15625 6.050781 6.15625h106.226563c.160156 0 .320312.007813.476562.027344.152344-.128907.316406-.25.492188-.355469l144.328124-88.832031c.910157-.558594 2.003907-.734375 3.046876-.480469 1.035156.253906 1.929687.914062 2.480468 1.828125l48.660156 81.089844c1.035157 1.722656 2.835938 2.753906 4.828126 2.753906 1.023437 0 2.03125-.289063 2.914062-.832031 2.675781-1.644532 3.527344-5.191406 1.898438-7.902344l-63.199219-105.316406c-.21875-.371094-.378907-.769532-.472657-1.1875l-15.246093-68.203125c-.703125.492187-1.339844.933593-1.890625 1.316406-2.597656 1.804687-5.558594 2.917969-8.664063 3.269531l15.480469 69.257813c.320312.273437.597656.601562.824219.972656l4.871093 8.117187c1.128907 1.878907.535157 4.316407-1.335937 5.464844l-130.476563 80.308594c-.914062.554688-2.007812.730469-3.046874.476562-1.035157-.253906-1.929688-.910156-2.480469-1.828124l-66.574219-110.941407-11.746094 2.46875 14.632813 24.390625c.761719 1.269532.761719 2.851563 0 4.117188l-51.957031 86.589844c-.054688.082031-.105469.160156-.15625.238281zm100.640624 1.703125h-81.359374c-1.441407 0-2.769532-.777344-3.480469-2.03125-.710938-1.253906-.691407-2.792969.050781-4.03125l40.679688-67.789063c.722656-1.207031 2.023437-1.941406 3.429687-1.941406s2.707031.734375 3.429687 1.941406l40.679688 67.789063c.742188 1.238281.761719 2.777344.050781 4.03125-.710937 1.253906-2.039062 2.03125-3.480469 2.03125zm-74.292968-8h67.230468l-33.617187-56.019532zm0 0" fill="#3762cc"/><path d="m314.578125 76c-6.230469 0-12.066406-3.050781-15.621094-8.164062-2.894531-4.167969-3.992187-9.214844-3.089843-14.210938.902343-4.996094 3.695312-9.339844 7.863281-12.234375 1.515625-1.050781 2.945312-2.078125 4.277343-3.074219-6.503906-.355468-13.867187-.289062-20.371093.253906-5.042969.429688-9.960938-1.136718-13.835938-4.40625-3.882812-3.28125-6.253906-7.878906-6.675781-12.945312-.421875-5.054688 1.148438-9.976562 4.425781-13.851562 3.277344-3.875 7.871094-6.242188 12.925781-6.664063.53125-.039063 13.136719-1.078125 26.441407-.285156 15.828125.921875 37.628906 4.246093 44.136719 22.351562 8.414062 23.40625-18.261719 41.929688-29.652344 49.835938-3.195313 2.21875-6.9375 3.394531-10.824219 3.394531zm-14.945313-45.898438c6.953126 0 13.792969.425782 18.988282 1.242188 1.515625.238281 2.757812 1.320312 3.207031 2.785156.449219 1.46875.015625 3.058594-1.109375 4.101563-3.160156 2.929687-7.339844 6.203125-12.421875 9.730469-4.984375 3.460937-6.222656 10.328124-2.761719 15.3125 2.054688 2.957031 5.4375 4.726562 9.046875 4.726562 2.242188 0 4.40625-.679688 6.261719-1.964844 9.878906-6.859375 33.019531-22.929687 26.683594-40.558594-4.90625-13.644531-23.511719-16.28125-37.078125-17.074218-12.75-.753906-24.796875.230468-25.304688.277344-6.042969.503906-10.550781 5.832031-10.046875 11.875.246094 2.933593 1.617188 5.597656 3.867188 7.496093 2.238281 1.890625 5.074218 2.800781 8.003906 2.546875 4.019531-.332031 8.363281-.496094 12.664062-.496094zm0 0" fill="#3762cc"/><path d="m231.574219 262.460938c0-14.917969-11.941407-27.011719-26.671875-27.011719-14.726563 0-26.667969 12.09375-26.667969 27.011719 0 14.917968 11.941406 27.007812 26.667969 27.007812 14.730468 0 26.671875-12.089844 26.671875-27.007812zm0 0" fill="#a4c9ff"/><path d="m231.574219 262.460938c0-14.917969-11.941407-27.011719-26.671875-27.011719-14.726563 0-26.667969 12.09375-26.667969 27.011719 0 14.917968 11.941406 27.007812 26.667969 27.007812 14.730468 0 26.671875-12.089844 26.671875-27.007812zm0 0" fill="#a4c9ff"/><path d="m204.902344 293.46875c-16.910156 0-30.667969-13.910156-30.667969-31.007812 0-17.101563 13.757813-31.011719 30.667969-31.011719s30.671875 13.910156 30.671875 31.011719c0 17.097656-13.757813 31.007812-30.671875 31.007812zm0-54.015625c-12.5 0-22.667969 10.320313-22.667969 23.007813s10.167969 23.007812 22.667969 23.007812 22.671875-10.320312 22.671875-23.007812-10.171875-23.007813-22.671875-23.007813zm0 0" fill="#3762cc"/><path d="m204.902344 293.46875c-16.910156 0-30.667969-13.910156-30.667969-31.007812 0-17.101563 13.757813-31.011719 30.667969-31.011719s30.671875 13.910156 30.671875 31.011719c0 17.097656-13.757813 31.007812-30.671875 31.007812zm0-54.015625c-12.5 0-22.667969 10.320313-22.667969 23.007813s10.167969 23.007812 22.667969 23.007812 22.671875-10.320312 22.671875-23.007812-10.171875-23.007813-22.671875-23.007813zm0 0" fill="#3762cc"/><path d="m219.222656 300.5625-12-20.785156c-2.210937-3.824219-.898437-8.71875 2.925782-10.925782 3.828124-2.210937 8.722656-.898437 10.929687 2.925782l12 20.785156c2.210937 3.824219.898437 8.71875-2.929687 10.925781-3.824219 2.210938-8.714844.898438-10.925782-2.925781zm0 0" fill="#4671c6"/><path d="m219.222656 300.5625-12-20.785156c-2.210937-3.824219-.898437-8.71875 2.925782-10.925782 3.828124-2.210937 8.722656-.898437 10.929687 2.925782l12 20.785156c2.210937 3.824219.898437 8.71875-2.929687 10.925781-3.824219 2.210938-8.714844.898438-10.925782-2.925781zm0 0" fill="#4671c6"/><path d="m226.171875 308.558594c-4.152344 0-8.195313-2.152344-10.414063-5.996094l-12-20.785156c-1.601562-2.777344-2.027343-6.011719-1.199218-9.105469.828125-3.097656 2.816406-5.6875 5.589844-7.289063 5.734374-3.304687 13.085937-1.335937 16.394531 4.390626l12 20.785156c3.308593 5.730468 1.335937 13.085937-4.394531 16.394531-1.882813 1.089844-3.945313 1.605469-5.976563 1.605469zm-3.484375-9.996094c1.101562 1.910156 3.554688 2.566406 5.460938 1.460938 1.910156-1.101563 2.566406-3.550782 1.464843-5.460938l-12-20.785156c-1.101562-1.910156-3.554687-2.570313-5.464843-1.464844-.925782.535156-1.585938 1.398438-1.863282 2.429688-.273437 1.03125-.132812 2.109374.402344 3.035156zm0 0" fill="#3762cc"/><path d="m226.171875 308.558594c-4.152344 0-8.195313-2.152344-10.414063-5.996094l-12-20.785156c-1.601562-2.777344-2.027343-6.011719-1.199218-9.105469.828125-3.097656 2.816406-5.6875 5.589844-7.289063 5.734374-3.304687 13.085937-1.335937 16.394531 4.390626l12 20.785156c3.308593 5.730468 1.335937 13.085937-4.394531 16.394531-1.882813 1.089844-3.945313 1.605469-5.976563 1.605469zm-3.484375-9.996094c1.101562 1.910156 3.554688 2.566406 5.460938 1.460938 1.910156-1.101563 2.566406-3.550782 1.464843-5.460938l-12-20.785156c-1.101562-1.910156-3.554687-2.570313-5.464843-1.464844-.925782.535156-1.585938 1.398438-1.863282 2.429688-.273437 1.03125-.132812 2.109374.402344 3.035156zm0 0" fill="#3762cc"/><path d="m256.617188 310.835938h-34.625c-2.589844 0-4.6875-2.097657-4.6875-4.6875v-6.625c0-2.585938 2.097656-4.683594 4.6875-4.683594h34.625c2.589843 0 4.6875 2.097656 4.6875 4.683594v6.625c0 2.589843-2.097657 4.6875-4.6875 4.6875zm0 0" fill="#f9a7a7"/><path d="m256.617188 310.835938h-34.625c-2.589844 0-4.6875-2.097657-4.6875-4.6875v-6.625c0-2.585938 2.097656-4.683594 4.6875-4.683594h34.625c2.589843 0 4.6875 2.097656 4.6875 4.683594v6.625c0 2.589843-2.097657 4.6875-4.6875 4.6875zm0 0" fill="#f9a7a7"/><path d="m256.617188 314.835938h-34.625c-4.789063 0-8.6875-3.894532-8.6875-8.6875v-6.625c0-4.792969 3.898437-8.6875 8.6875-8.6875h34.625c4.789062 0 8.6875 3.894531 8.6875 8.6875v6.625c0 4.792968-3.898438 8.6875-8.6875 8.6875zm-34.625-16c-.378907 0-.6875.308593-.6875.6875v6.625c0 .378906.308593.691406.6875.691406h34.625c.378906 0 .6875-.308594.6875-.691406v-6.625c0-.378907-.308594-.6875-.6875-.6875zm0 0" fill="#3762cc"/><path d="m256.617188 314.835938h-34.625c-4.789063 0-8.6875-3.894532-8.6875-8.6875v-6.625c0-4.792969 3.898437-8.6875 8.6875-8.6875h34.625c4.789062 0 8.6875 3.894531 8.6875 8.6875v6.625c0 4.792968-3.898438 8.6875-8.6875 8.6875zm-34.625-16c-.378907 0-.6875.308593-.6875.6875v6.625c0 .378906.308593.691406.6875.691406h34.625c.378906 0 .6875-.308594.6875-.691406v-6.625c0-.378907-.308594-.6875-.6875-.6875zm0 0" fill="#3762cc"/></svg>