<svg id="Layer_1" enable-background="new 0 0 128 128" height="512" viewBox="0 0 128 128" width="512" xmlns="http://www.w3.org/2000/svg"><path d="m92.095 69.636-16.371-8.453c.367-.845.565-1.743.565-2.673-.005-1.273-.705-2.445-1.829-3.058-.769-.419-1.624-.52-2.426-.322.32-.892.502-1.842.502-2.823v-10.539c2.868.684 6.111 1.185 9.487 1.185 3.659 0 7.082-.585 10.173-1.738 1.144-.426 2.054-1.273 2.562-2.385.507-1.111.551-2.353.125-3.497-.427-1.146-1.274-2.055-2.387-2.563-1.111-.507-2.354-.55-3.497-.124-5.728 2.138-12.356.922-17.002-.52-1.176-3.346-4.175-5.815-7.788-6.049-2.494-.159-4.873.687-6.69 2.392-.264.247-.506.514-.736.79-12.241 4.846-19.151 18.064-19.461 18.668-1.13 2.203-.258 4.916 1.945 6.046.648.333 1.352.497 2.052.497.904 0 1.804-.274 2.575-.813.595-.416 1.085-.979 1.418-1.629.047-.09 3.519-6.704 9.385-11.28v14.203c0 .028.004.055.004.082-.552.003-1.106.138-1.622.418-1.124.613-1.825 1.784-1.831 3.062 0 4.48 4.596 8.194 10.578 8.867l1.978 2.017v9.558c-11.422 1.396-20.304 11.193-20.304 23.042 0 12.803 10.367 23.219 23.11 23.219 12.744 0 23.111-10.416 23.111-23.219 0-4.388-1.218-8.494-3.332-11.998.837-.427 1.561-1.094 2.037-1.981l5.938-11.074c.686-1.277.826-2.744.396-4.129-.431-1.385-1.377-2.514-2.665-3.179zm-36.742 45.09 9.176-9.221c.342.166.699.304 1.081.386v13.113c-3.927-.232-7.492-1.805-10.257-4.278zm12.257-8.82c.388-.079.75-.217 1.098-.383l9.158 9.203c-2.765 2.473-6.33 4.046-10.257 4.277v-13.097zm9.788-17.067c.163.135.311.287.469.429l-1.162 1.168zm-6.306-12.014-.964 2.222c-.219-.034-.442-.057-.663-.085v-3.795zm-7.286 16.786-1.076 2.478c-.063.146-.096.297-.146.445l-7.231-7.267c2.335-2.089 5.239-3.535 8.453-4.076zm-9.863-2.925 8.331 8.372c-.285.592-.454 1.244-.477 1.939h-12.106c.23-3.947 1.793-7.531 4.252-10.311zm8.207 12.311c.193.468.47.887.792 1.268l-8.999 9.043c-2.459-2.78-4.022-6.364-4.252-10.311zm17.127 10.311-8.971-9.014c.333-.388.618-.817.815-1.297h12.407c-.228 3.947-1.791 7.531-4.251 10.311zm-7.227-12.311c.102-.176.218-.342.3-.53l2.172-5.003 4.755-4.778c2.46 2.78 4.023 6.364 4.252 10.311zm7.869-17.965 2.33-5.366c.245-.564.374-1.155.414-1.747l1.093.591-3.59 6.699c-.082-.06-.165-.118-.247-.177z" fill="#e6e7e8"/><path d="m65.717 23.469c4.6 0 8.342-3.742 8.342-8.342s-3.742-8.342-8.342-8.342-8.342 3.742-8.342 8.342c0 4.599 3.742 8.342 8.342 8.342z" fill="#e6e7e8"/><g fill="#6dc9f7"><path d="m39.322 48.838c-1.027.718-2.406.858-3.598.246-1.715-.88-2.392-2.984-1.512-4.7.326-.636 8.143-15.606 21.831-19.148 1.866-.483 3.77.638 4.253 2.505.484 1.867-.636 3.774-2.505 4.254-10.682 2.766-17.303 15.449-17.367 15.577-.269.524-.652.95-1.102 1.266z"/><path d="m76.346 68.445-13.232-13.368c2.603-1.145 4.423-3.743 4.423-6.77v-17.057c0-4.218-3.183-7.901-7.392-8.173-4.612-.299-8.446 3.354-8.446 7.902v19.972c0 3.046 1.195 5.971 3.328 8.146l13.251 13.509-8.63 19.883c-.891 2.052-.186 4.535 1.772 5.617 2.246 1.241 5.015.26 6.012-2.037l9.899-22.802c.72-1.655.326-3.583-.985-4.822z"/><path d="m87.636 66.524-17.25-8.907c-.557.915-1.365 1.734-2.346 2.436l8.305 8.391c.502.474.867 1.05 1.089 1.673l3.673 1.987-4.22 7.871c-.141.263-.238.535-.312.811 1.639 1.345 3.082 2.922 4.281 4.68 1.105-.192 2.117-.857 2.688-1.922l5.937-11.074c1.154-2.149.323-4.827-1.845-5.946z"/></g><path d="m74.673 79.391-1.685 3.881c4.588 3.272 7.592 8.641 7.592 14.725 0 9.973-8.045 18.057-17.969 18.057s-17.969-8.084-17.969-18.057 8.045-18.057 17.969-18.057c.818 0 1.617.074 2.406.18l1.714-3.949c-1.336-.254-2.712-.393-4.12-.393-12.192 0-22.11 9.967-22.11 22.219 0 12.251 9.919 22.218 22.11 22.218 12.192 0 22.111-9.967 22.111-22.218-.001-7.781-4.006-14.636-10.049-18.606z" fill="#0089ef"/><path d="m60.807 64.989v24.831l3.658-8.43v-12.671z" fill="#ffd7e5"/><path d="m76.346 68.445-13.232-13.368c2.603-1.145 4.423-3.743 4.423-6.77v-17.057c0-4.218-3.183-7.901-7.392-8.173-4.612-.299-8.446 3.354-8.446 7.902v19.972c0 3.046 1.195 5.971 3.328 8.146l13.251 13.509-8.63 19.883c-.891 2.052-.186 4.535 1.772 5.617 2.246 1.241 5.015.26 6.012-2.037l9.899-22.802c.72-1.655.326-3.583-.985-4.822z" fill="#6dc9f7"/><path d="m63.114 55.077 4.933 4.984c2.004-1.437 3.243-3.391 3.243-5.547-.007-1.912-2.119-3.14-3.73-2.111-.654.418-1.385.778-2.166 1.083-.653.66-1.418 1.211-2.28 1.591z" fill="#fa759e"/><path d="m55.027 59.097c-1.812-1.847-2.938-4.238-3.239-6.782-1.582-.824-3.53.361-3.537 2.198 0 4.063 4.38 7.41 10.043 7.914z" fill="#fa759e"/><path d="m76.346 68.445-13.232-13.368c2.603-1.145 4.423-3.743 4.423-6.77v-17.057c0-4.218-3.183-7.901-7.392-8.173-4.612-.299-8.446 3.354-8.446 7.902v19.972c0 3.046 1.195 5.971 3.328 8.146l13.251 13.509-8.63 19.883c-.891 2.052-.186 4.535 1.772 5.617 2.246 1.241 5.015.26 6.012-2.037l9.899-22.802c.72-1.655.326-3.583-.985-4.822z" fill="#6dc9f7"/><path d="m69.066 11.125c0 3.45-2.39 6.36-5.61 7.13-.09.02-.17.04-.26.06-.48.11-.97.16-1.48.16-4.05 0-7.34-3.29-7.34-7.35s3.29-7.34 7.34-7.34c.51 0 1 .05 1.48.16.09.02.17.04.26.06 3.22.77 5.61 3.67 5.61 7.12z" fill="#fff"/><path d="m69.066 11.125c0 3.45-2.39 6.36-5.61 7.13-.09.02-.17.04-.26.06-3.32-.7-5.82-3.65-5.82-7.19s2.5-6.48 5.82-7.18c.09.02.17.04.26.06 3.22.77 5.61 3.67 5.61 7.12z" fill="#6dc9f7"/><path d="m89.945 31.683c-.69-1.85-2.749-2.788-4.596-2.099-6.226 2.323-13.339.912-18.137-.641-.911-3.178-3.651-5.646-7.068-5.867-2.737-.177-5.192 1.043-6.743 3.01-12.048 4.616-18.886 17.704-19.191 18.298-.88 1.715-.204 3.819 1.512 4.7 1.192.612 2.571.472 3.598-.246.451-.315.833-.742 1.102-1.265.051-.101 4.226-8.089 11.275-12.775v16.154c0 3.046 1.195 5.971 3.328 8.146l13.251 13.509-8.63 19.883c-.891 2.052-.186 4.535 1.772 5.617 2.246 1.241 5.015.26 6.012-2.037l9.899-22.802c.719-1.654.325-3.582-.986-4.821l-13.229-13.37c2.603-1.145 4.423-3.743 4.423-6.77v-11.814c3.08.819 6.696 1.461 10.487 1.461 3.225 0 6.577-.464 9.824-1.675 1.847-.689 2.787-2.747 2.097-4.596z" fill="#6dc9f7"/><path d="m88.095 65.636-16.375-8.455c.368-.844.57-1.741.57-2.671-.005-1.274-.707-2.446-1.831-3.058-.768-.419-1.622-.519-2.424-.321.32-.892.502-1.842.502-2.823v-10.532c.777.185 1.58.357 2.41.509.061.011.121.016.181.016.474 0 .895-.338.982-.82.1-.543-.261-1.064-.804-1.164-6.97-1.272-12.308-4.059-12.532-4.177-.49-.257-1.093-.07-1.351.418-.257.488-.07 1.093.418 1.351.46.242 3.839 1.975 8.695 3.345v11.052c0 2.534-1.501 4.832-3.825 5.854-.302.133-.519.405-.58.729s.04.656.271.891l13.232 13.368c.008.008.016.016.024.023 1.001.946 1.305 2.432.755 3.695l-9.898 22.804c-.367.847-1.08 1.503-1.954 1.801-.886.301-1.83.216-2.657-.24-1.458-.806-2.045-2.714-1.338-4.344l8.629-19.883c.162-.374.082-.808-.203-1.099l-13.251-13.508c-1.962-2-3.042-4.645-3.042-7.446v-19.972c0-1.933.777-3.727 2.188-5.049 1.297-1.215 2.961-1.87 4.728-1.87.155 0 .31.005.466.015 2.188.142 4.076 1.359 5.238 3.129-1.955-.745-3.175-1.365-3.214-1.385-.491-.254-1.094-.062-1.348.429s-.062 1.094.429 1.348c.553.287 13.69 6.965 24.513 2.926.644-.24 1.343-.216 1.967.07.626.285 1.103.797 1.344 1.441.239.644.215 1.342-.07 1.967-.286.625-.798 1.102-1.441 1.341-.518.193-.78.769-.588 1.286.15.402.532.651.938.651.116 0 .234-.021.35-.063 1.145-.426 2.054-1.273 2.562-2.384.507-1.111.551-2.353.124-3.498s-1.274-2.055-2.386-2.562-2.354-.551-3.497-.124c-5.729 2.14-12.36.922-17.007-.521-1.175-3.345-4.17-5.814-7.783-6.048-2.493-.158-4.873.688-6.691 2.392-.266.25-.51.519-.742.797-12.226 4.847-19.145 18.056-19.455 18.661-1.131 2.203-.258 4.915 1.945 6.046.648.333 1.351.497 2.051.497.904 0 1.805-.274 2.576-.814.594-.416 1.085-.979 1.42-1.63.047-.09 3.511-6.702 9.383-11.278v14.202c0 .032.004.063.005.094-.552.002-1.107.126-1.622.406-1.124.613-1.825 1.784-1.831 3.062 0 4.478 4.593 8.185 10.571 8.86l1.986 2.025v9.585c-11.423 1.398-20.308 11.168-20.308 23.014 0 12.803 10.367 23.218 23.11 23.218 12.744 0 23.111-10.415 23.111-23.218 0-4.387-1.227-8.486-3.341-11.988.842-.427 1.569-1.1 2.047-1.991l5.937-11.074c.686-1.278.826-2.744.396-4.129s-1.377-2.514-2.665-3.179zm-22.139-11.298c.76-.309 1.482-.671 2.143-1.094.61-.389 1.184-.156 1.402-.037.491.268.786.757.788 1.306 0 1.585-.809 3.042-2.154 4.215l-3.377-3.412c.435-.286.828-.621 1.198-.978zm12.292 19.327c.245-.563.375-1.154.414-1.746l1.093.591-3.592 6.702c-.081-.059-.166-.113-.248-.172zm-4.859 11.192c.161.134.317.274.473.414l-1.158 1.164zm-2.868 6.608 4.754-4.777c2.465 2.778 4.045 6.361 4.274 10.31h-11.5c.102-.176.218-.342.3-.53zm-10.714-1.853-1.076 2.478c-.063.146-.096.296-.146.444l-7.235-7.27c2.335-2.087 5.243-3.53 8.456-4.07v8.418zm7.611 8.255c-.012.079-.009.162-.024.24.015-.077.012-.161.024-.24-.001.001 0 .001 0 0zm-1.836 3.117c-.004.003-.008.007-.012.01.004-.003.008-.007.012-.01zm-3.818.932c.284.052.573.088.872.088-.299 0-.588-.035-.872-.088zm-11.828-15.238 8.335 8.376c-.288.59-.458 1.247-.48 1.943h-12.103c.229-3.948 1.787-7.54 4.248-10.319zm7.943 11.429c-.063-.309-.096-.629-.096-.956-.001.327.034.647.096.956zm.271.89c.193.468.47.887.792 1.268l-8.999 9.043c-2.46-2.78-4.023-6.364-4.252-10.311zm1.524 1.973c-.004-.003-.008-.006-.012-.01.004.004.008.007.012.01zm.855.535c.342.166.699.304 1.081.386v13.113c-3.927-.232-7.492-1.804-10.257-4.278zm3.081.401c.388-.079.751-.217 1.099-.383l9.158 9.203c-2.765 2.473-6.33 4.046-10.257 4.277zm11.667 7.402-8.971-9.015c.333-.388.617-.817.815-1.297h12.408c-.229 3.948-1.792 7.533-4.252 10.312zm-9.154-34.25c-.218-.033-.438-.063-.658-.09v-3.802l1.627 1.659zm-26.588-27.943c-.188.365-.453.669-.786.903-.761.532-1.744.599-2.569.176-1.222-.627-1.706-2.132-1.079-3.353.274-.534 5.989-11.447 16.048-16.643-.293.891-.451 1.828-.451 2.78v3.313c-6.988 4.882-11.115 12.728-11.163 12.824zm9.715 7.402c.002-.552.297-1.042.788-1.31.128-.07.378-.179.686-.179.05 0 .107.016.16.022.423 2.533 1.596 4.878 3.429 6.747l1.016 1.036c-3.584-1.113-6.079-3.521-6.079-6.316zm14.215 14.611v12.054l-1.659 3.822v-17.567zm-.855 50.087c-11.64 0-21.11-9.519-21.11-21.218 0-10.741 7.992-19.606 18.307-20.993v2.171c-9.131 1.368-16.166 9.273-16.166 18.822 0 10.509 8.51 19.058 18.97 19.058 10.459 0 18.969-8.549 18.969-19.058 0-6.116-2.889-11.559-7.362-15.048l.882-2.032c5.221 3.866 8.621 10.077 8.621 17.08 0 11.699-9.471 21.218-21.111 21.218zm25.991-47.217-5.937 11.074c-.317.591-.83.994-1.41 1.226-1.022-1.398-2.202-2.671-3.503-3.807.007-.014.01-.029.017-.043l4.22-7.871c.261-.485.079-1.09-.405-1.353l-3.376-1.826c-.275-.614-.656-1.187-1.162-1.668l-7.521-7.599c.433-.386.814-.803 1.155-1.237l16.498 8.519c.809.417 1.402 1.126 1.672 1.994.271.869.182 1.789-.248 2.591z" fill="#3a2c60"/><path d="m61.717 19.468c4.6 0 8.342-3.742 8.342-8.342s-3.742-8.342-8.342-8.342-8.342 3.742-8.342 8.342 3.742 8.342 8.342 8.342zm0-14.684c3.497 0 6.342 2.845 6.342 6.342s-2.845 6.342-6.342 6.342-6.342-2.845-6.342-6.342 2.845-6.342 6.342-6.342z" fill="#3a2c60"/><path d="m75.639 36.87c-.542-.029-1.029.377-1.067.928s.378 1.029.929 1.067c.847.059 1.695.089 2.523.089 1.742 0 3.446-.133 5.063-.396.545-.088.915-.602.827-1.147-.089-.544-.603-.917-1.147-.826-2.235.362-4.65.458-7.128.285z" fill="#3a2c60"/></svg>